:version 1.10
:name ASF
:units
  mass 1
  length 1
  angle deg
:documentation
  ASF file generated by Kaydara
:root
  axis xyz
  order  tx ty tz rx ry rz
  position 0 0 0
  orientation 0 0 0
:bonedata
  begin
    id 1
    name abdomenDummy
    direction 1 -1.27917e-005 -1.26829e-007
    length 1.79048
    axis 0 0 0 xyz
  end
  begin
    id 2
    name abdomen
    direction 0.987238 0.159249 -9.68575e-008
    length 8.61378
    axis 2.73208e-005 5.54953e-006 9.16328 xyz
    dof rx ry rz
  end
  begin
    id 3
    name chest
    direction 0 0 0
    length 0
    axis 2.65071e-005 8.63688e-006 2.59796 xyz
    dof rx ry rz
  end
  begin
    id 4
    name neckDummyDummy
    direction 0.998972 0.0453274 -1.50742e-007
    length 9.56202
    axis 2.65071e-005 8.63688e-006 2.59796 xyz
  end
  begin
    id 5
    name neckDummy
    direction 0.99977 0.0214525 -1.61748e-007
    length 1.93574
    axis 2.62932e-005 9.26758e-006 1.22924 xyz
    dof rx ry rz
  end
  begin
    id 6
    name neck
    direction 0.99928 -0.0379406 -1.88707e-007
    length 3.70367
    axis 2.56966e-005 1.08122e-005 -2.17436 xyz
    dof rx ry rz
  end
  begin
    id 7
    name head
    direction 0.992648 -0.121037 -2.25408e-007
    length 6.35158
    axis 2.47068e-005 1.29149e-005 -6.95196 xyz
    dof rx ry rz
  end
  begin
    id 8
    name figureHair
    direction -0.86681 -0.498639 -7.83376e-008
    length 8.29884
    axis -2.7515e-005 4.48842e-006 -150.09 xyz
    dof rx ry rz
  end
  begin
    id 9
    name lCollarDummy
    direction 0.994611 0.0451299 -0.0933417
    length 9.60395
    axis 2.65071e-005 8.63688e-006 2.59796 xyz
  end
  begin
    id 10
    name lCollar
    direction 0.0384146 0.00127577 -0.999261
    length 6.95318
    axis 90.4899 87.7973 1.90202 xyz
    dof rx ry rz
  end
  begin
    id 11
    name lShldr
    direction -0.030648 0.0920515 -0.995282
    length 9.61158
    axis -161.793 84.4324 108.415 xyz
    dof rx ry rz
  end
  begin
    id 12
    name lForeArm
    direction 0.000163956 -0.0977586 -0.99521
    length 8.6068
    axis 0.134773 84.3899 -89.8525 xyz
    dof rx ry rz
  end
  begin
    id 13
    name lHand
    direction -0.0190533 -0.1444 -0.989336
    length 7.61479
    axis -7.3729 81.6249 -97.517 xyz
    dof rx ry rz
  end
  begin
    id 14
    name rCollarDummy
    direction 0.994871 0.0442627 0.0909555
    length 9.60761
    axis 2.65071e-005 8.63688e-006 2.59796 xyz
  end
  begin
    id 15
    name rCollar
    direction 0.0334251 -4.74072e-007 0.999441
    length 6.97058
    axis -178.152 -88.0845 -0.000674207 xyz
    dof rx ry rz
  end
  begin
    id 16
    name rShldr
    direction -0.026922 0.0719509 0.997045
    length 9.60913
    axis 71.2822 -85.594 110.514 xyz
    dof rx ry rz
  end
  begin
    id 17
    name rForeArm
    direction 0.00134679 -0.118986 0.992895
    length 8.57176
    axis -88.7923 -83.1659 -89.3516 xyz
    dof rx ry rz
  end
  begin
    id 18
    name rHand
    direction -0.0185183 -0.0768601 0.99687
    length 7.69687
    axis -74.5596 -85.4655 -103.546 xyz
    dof rx ry rz
  end
  begin
    id 19
    name lThighDummy
    direction -0.236086 -0.0385456 -0.970967
    length 4.99155
    axis 0 0 0 xyz
  end
  begin
    id 20
    name lThigh
    direction -0.993968 0.0148998 -0.108653
    length 13.572
    axis -91.4001 6.23768 179.141 xyz
    dof rx ry rz
  end
  begin
    id 21
    name lShin
    direction -0.992341 0.0904576 -0.0841193
    length 18.5862
    axis -91.4558 4.82538 174.792 xyz
    dof rx ry rz
  end
  begin
    id 22
    name lFoot
    direction 0.0209381 -0.999771 -0.00453005
    length 8.44474
    axis 4.86759 0.259522 -88.8001 xyz
    dof rx ry rz
  end
  begin
    id 23
    name rThighDummy
    direction -0.236086 -0.0385456 0.970967
    length 4.99155
    axis 0 0 0 xyz
  end
  begin
    id 24
    name rThigh
    direction -0.993968 0.0148995 0.108653
    length 13.5721
    axis -89.7059 -6.2377 179.141 xyz
    dof rx ry rz
  end
  begin
    id 25
    name rShin
    direction -0.9925 0.0899962 0.0827255
    length 18.6716
    axis -89.2745 -4.74775 174.819 xyz
    dof rx ry rz
  end
  begin
    id 26
    name rFoot
    direction 0.0301721 -0.999545 9.70865e-005
    length 8.45013
    axis -2.50066e-005 -0.00555246 -88.271 xyz
    dof rx ry rz
  end
:hierarchy
  begin
    root abdomenDummy lThighDummy rThighDummy
    abdomenDummy abdomen
    abdomen chest
    chest neckDummyDummy lCollarDummy rCollarDummy
    neckDummyDummy neckDummy
    neckDummy neck
    neck head
    head figureHair
    lCollarDummy lCollar
    lCollar lShldr
    lShldr lForeArm
    lForeArm lHand
    rCollarDummy rCollar
    rCollar rShldr
    rShldr rForeArm
    rForeArm rHand
    lThighDummy lThigh
    lThigh lShin
    lShin lFoot
    rThighDummy rThigh
    rThigh rShin
    rShin rFoot
  end

:SAMPLES-PER-SECOND 25
:FULLY-SPECIFIED
:DEGREES
1166
root  4.1567 36.1169 3.05125 179.818 8.47937 87.7556
abdomen  -6.33019 -21.5513 -3.48108
chest  -5.91258 -10.9741 -9.92472
neckDummy  9.09964e-021 0 8.72668e-016
neck  5.06198 -7.06772 -5.35875
head  6.49801 11.144 -8.10111
figureHair  0 1.51661e-021 -9.5315e-016
lCollar  -5.15695e-016 -6.42944e-016 -7.59357e-014
lShldr  37.9682 2.3817 -82.6979
lForeArm  23.5648 -28.4174 -0.257913
lHand  0.254698 0.195082 5.2986
rCollar  1.7976e-016 -5.12864e-014 1.62755e-015
rShldr  5.66929 48.4491 8.30493
rForeArm  1.83706 1.10977 18.5316
rHand  0.452253 -13.0381 0.738069
lThigh  1.01924 0.840909 -15.166
lShin  -19.3417 -0.675775 -9.28465
lFoot  13.661 -1.36526 -1.36392
rThigh  12.915 -14.9324 -17.7789
rShin  2.70688 25.832 -3.64179
rFoot  4.98347 -0.540422 1.56654
1167
root  4.0723 35.9838 3.47868 179.343 9.20734 87.4009
abdomen  -6.58104 -22.2365 -3.49918
chest  -6.20062 -11.8708 -9.89863
neckDummy  9.09964e-021 0 8.72668e-016
neck  5.2941 -8.87478 -5.65151
head  7.12348 11.9616 -8.01112
figureHair  0 1.51661e-021 -9.5315e-016
lCollar  -5.15695e-016 -6.42944e-016 -7.59357e-014
lShldr  38.6583 2.44619 -83.0722
lForeArm  23.6248 -28.5019 -0.253914
lHand  0.254698 0.195082 5.2986
rCollar  1.7976e-016 -5.12864e-014 1.62755e-015
rShldr  7.55709 47.19 8.76231
rForeArm  3.14371 1.10872 18.688
rHand  0.445491 -13.6919 1.01379
lThigh  1.61997 1.41038 -16.4486
lShin  -20.3816 -0.943295 -9.70608
lFoot  14.409 -1.49238 -0.960903
rThigh  10.5562 -15.5217 -18.856
rShin  4.34682 27.1777 -3.57917
rFoot  5.82328 -0.64246 1.90629
1168
root  3.97497 35.8584 3.8786 178.761 9.86813 87.2304
abdomen  -6.87882 -23.1179 -3.01536
chest  -6.33095 -12.3727 -10.1871
neckDummy  9.09964e-021 0 8.72668e-016
neck  5.50466 -10.7982 -6.23303
head  7.7418 12.8359 -7.77677
figureHair  0 1.51661e-021 -9.5315e-016
lCollar  -5.15695e-016 -6.42944e-016 -7.59357e-014
lShldr  39.2239 2.63964 -83.4179
lForeArm  23.7744 -28.4608 -0.255882
lHand  0.254698 0.195082 5.2986
rCollar  1.7976e-016 -5.12864e-014 1.62755e-015
rShldr  8.68554 46.024 9.18231
rForeArm  4.22116 1.10687 18.8744
rHand  0.443289 -13.9117 1.11864
lThigh  2.15913 1.81231 -17.6277
lShin  -21.5174 -1.30524 -10.1266
lFoot  15.0129 -1.60718 -0.572524
rThigh  7.61596 -16.3099 -19.706
rShin  6.4638 28.3842 -3.24445
rFoot  6.60238 -0.743691 2.13462
1169
root  3.88589 35.7421 4.24862 178.555 10.5121 87.0667
abdomen  -7.33485 -23.8261 -2.3719
chest  -6.61191 -12.9913 -10.3768
neckDummy  9.09964e-021 0 8.72668e-016
neck  5.62424 -12.4018 -6.80534
head  8.18848 13.4606 -7.54588
figureHair  0 1.51661e-021 -9.5315e-016
lCollar  -5.15695e-016 -6.42944e-016 -7.59357e-014
lShldr  39.9568 2.91537 -83.6772
lForeArm  23.9134 -28.5787 -0.25027
lHand  0.254698 0.195082 5.2986
rCollar  1.7976e-016 -5.12864e-014 1.62755e-015
rShldr  9.31881 44.864 9.65378
rForeArm  4.45277 1.10632 18.8855
rHand  0.440329 -13.8136 1.11336
lThigh  2.70178 2.15246 -18.7622
lShin  -22.2338 -1.54174 -10.4514
lFoot  15.6508 -1.71334 -0.307157
rThigh  5.14394 -16.7548 -20.6046
rShin  8.47371 29.3843 -2.82009
rFoot  7.524 -0.868826 2.32841
1170
root  3.80939 35.6278 4.59026 178.572 11.165 86.7917
abdomen  -7.71879 -24.2952 -1.96162
chest  -6.93654 -13.853 -10.3423
neckDummy  9.09964e-021 0 8.72668e-016
neck  5.61385 -13.4722 -7.08928
head  8.37538 13.7259 -7.59589
figureHair  0 1.51661e-021 -9.5315e-016
lCollar  -5.15695e-016 -6.42944e-016 -7.59357e-014
lShldr  40.9157 3.23409 -83.9658
lForeArm  23.8929 -28.7542 -0.241988
lHand  0.254698 0.195082 5.2986
rCollar  1.7976e-016 -5.12864e-014 1.62755e-015
rShldr  9.80044 43.7198 10.0899
rForeArm  4.2454 1.11223 18.7138
rHand  0.406756 -13.9467 1.38334
lThigh  3.23549 2.56035 -19.8638
lShin  -22.7254 -1.66489 -10.745
lFoot  16.3264 -1.81487 -0.125298
rThigh  3.04957 -16.9461 -21.5242
rShin  10.305 30.3499 -2.41679
rFoot  8.37336 -0.986888 2.51738
1171
root  3.75098 35.5174 4.89894 178.584 11.7802 86.5359
abdomen  -8.02601 -24.7374 -1.56809
chest  -7.17265 -14.5546 -10.2836
neckDummy  9.09964e-021 0 8.72668e-016
neck  5.48326 -14.4835 -7.26775
head  8.43001 13.9804 -7.71778
figureHair  0 1.51661e-021 -9.5315e-016
lCollar  -5.15695e-016 -6.42944e-016 -7.59357e-014
lShldr  41.8327 3.52807 -84.2425
lForeArm  23.9006 -28.7461 -0.24162
lHand  0.254698 0.195082 5.2986
rCollar  1.7976e-016 -5.12864e-014 1.62755e-015
rShldr  10.1665 42.7224 10.4514
rForeArm  4.47211 1.13396 18.3561
rHand  0.366419 -14.2286 1.72807
lThigh  3.67548 2.83371 -20.8554
lShin  -23.172 -1.63525 -11.0565
lFoot  16.8209 -1.90162 0.0810221
rThigh  1.3635 -17.1759 -22.3712
rShin  11.7929 31.2861 -2.09839
rFoot  8.87697 -1.05794 2.68096
1172
root  3.70528 35.4151 5.17396 178.557 12.2943 86.3098
abdomen  -8.30677 -25.2317 -1.08928
chest  -7.30114 -14.9357 -10.3354
neckDummy  9.09964e-021 0 8.72668e-016
neck  5.23491 -15.621 -7.34572
head  8.41465 14.3408 -7.77209
figureHair  0 1.51661e-021 -9.5315e-016
lCollar  -5.15695e-016 -6.42944e-016 -7.59357e-014
lShldr  42.4499 3.78381 -84.4092
lForeArm  24.044 -28.719 -0.239023
lHand  0.254698 0.195082 5.2986
rCollar  1.7976e-016 -5.12864e-014 1.62755e-015
rShldr  10.5893 42.0512 10.7237
rForeArm  5.04538 1.17377 17.9366
rHand  0.369525 -14.3655 1.7331
lThigh  4.03343 3.01093 -21.7086
lShin  -23.6268 -1.53775 -11.343
lFoot  17.1642 -1.98132 0.344542
rThigh  0.3999 -17.3814 -23.1691
rShin  12.5277 32.0631 -1.99206
rFoot  9.23587 -1.1094 2.827
1173
root  3.66752 35.3213 5.41412 178.415 12.708 86.0344
abdomen  -8.43388 -25.698 -0.823444
chest  -7.31699 -15.1868 -10.3375
neckDummy  9.09964e-021 0 8.72668e-016
neck  4.89731 -16.6108 -7.14878
head  8.28615 14.6239 -8.04321
figureHair  0 1.51661e-021 -9.5315e-016
lCollar  -5.15695e-016 -6.42944e-016 -7.59357e-014
lShldr  42.7874 4.11171 -84.5189
lForeArm  24.2097 -28.8379 -0.236126
lHand  0.254698 0.195082 5.2986
rCollar  1.7976e-016 -5.12864e-014 1.62755e-015
rShldr  11.2508 41.7969 10.8618
rForeArm  5.37214 1.20413 17.6839
rHand  0.40041 -14.4805 1.54258
lThigh  4.34581 3.25084 -22.4296
lShin  -24.1445 -1.51554 -11.5942
lFoot  17.4385 -2.05734 0.626491
rThigh  -0.17263 -17.5265 -23.8819
rShin  12.7564 32.6987 -2.00858
rFoot  9.62864 -1.16678 2.96384
1174
root  3.64973 35.2418 5.61125 178.195 13.0062 85.8048
abdomen  -8.44158 -26.0554 -0.759798
chest  -7.29616 -15.3977 -10.2085
neckDummy  9.09964e-021 0 8.72668e-016
neck  4.63455 -17.3474 -6.94693
head  8.16349 14.6967 -8.436
figureHair  0 1.51661e-021 -9.5315e-016
lCollar  -5.15695e-016 -6.42944e-016 -7.59357e-014
lShldr  42.9349 4.53437 -84.6494
lForeArm  24.3469 -28.852 -0.237328
lHand  0.254698 0.195082 5.2986
rCollar  1.7976e-016 -5.12864e-014 1.62755e-015
rShldr  11.7706 41.7723 10.9881
rForeArm  5.50846 1.22145 17.55
rHand  0.405859 -14.6441 1.53863
lThigh  4.53152 3.40373 -22.9611
lShin  -24.6018 -1.47986 -11.8515
lFoot  17.5665 -2.11628 0.90434
rThigh  -0.615924 -17.729 -24.4408
rShin  12.8341 33.2074 -2.01923
rFoot  9.92721 -1.21104 3.06945
1175
root  3.6563 35.1838 5.7669 177.921 13.1651 85.6894
abdomen  -8.46057 -26.2764 -0.704028
chest  -7.30612 -15.5699 -10.1217
neckDummy  9.09964e-021 0 8.72668e-016
neck  4.56109 -17.8961 -6.99383
head  8.19128 14.5792 -8.54072
figureHair  0 1.51661e-021 -9.5315e-016
lCollar  -5.15695e-016 -6.42944e-016 -7.59357e-014
lShldr  42.8991 4.90442 -84.7874
lForeArm  24.2824 -28.7022 -0.244373
lHand  0.254698 0.195082 5.2986
rCollar  1.7976e-016 -5.12864e-014 1.62755e-015
rShldr  11.9392 41.7581 11.3288
rForeArm  5.60999 1.25313 17.3419
rHand  0.380008 -14.6422 1.7148
lThigh  4.56957 3.36996 -23.2838
lShin  -24.9636 -1.38835 -12.1002
lFoot  17.6761 -2.1704 1.16249
rThigh  -0.894159 -17.9862 -24.8293
rShin  12.7556 33.4815 -2.0234
rFoot  10.1235 -1.24012 3.0845
1176
root  3.67734 35.1478 5.89165 177.526 13.1947 85.6684
abdomen  -8.40898 -26.3924 -0.749038
chest  -7.28613 -15.7586 -10.0757
neckDummy  9.09964e-021 0 8.72668e-016
neck  4.56716 -18.3153 -7.06887
head  8.28603 14.4854 -8.47933
figureHair  0 1.51661e-021 -9.5315e-016
lCollar  -5.15695e-016 -6.42944e-016 -7.59357e-014
lShldr  42.8666 5.17899 -84.8916
lForeArm  23.9041 -28.6763 -0.246302
lHand  0.254698 0.195082 5.2986
rCollar  1.7976e-016 -5.12864e-014 1.62755e-015
rShldr  12.1888 41.8543 11.7892
rForeArm  5.48617 1.26927 17.248
rHand  0.359476 -14.4931 1.82694
lThigh  4.61747 3.23802 -23.4858
lShin  -25.431 -1.3947 -12.264
lFoot  17.9386 -2.232 1.3422
rThigh  -1.13898 -18.2907 -25.0437
rShin  12.5764 33.5043 -2.02349
rFoot  10.3265 -1.26917 2.96752
1177
root  3.71078 35.1307 5.98484 177.081 13.1474 85.7494
abdomen  -8.23856 -26.4013 -0.944064
chest  -7.22255 -15.9659 -9.91414
neckDummy  9.09964e-021 0 8.72668e-016
neck  4.56357 -18.6801 -7.04908
head  8.35291 14.5128 -8.56505
figureHair  0 1.51661e-021 -9.5315e-016
lCollar  -5.15695e-016 -6.42944e-016 -7.59357e-014
lShldr  42.987 5.43074 -84.9734
lForeArm  23.7159 -28.7099 -0.248738
lHand  0.254698 0.195082 5.2986
rCollar  1.7976e-016 -5.12864e-014 1.62755e-015
rShldr  12.4893 42.1345 12.0882
rForeArm  5.43633 1.23106 17.4898
rHand  0.343524 -14.5837 1.9523
lThigh  4.75416 3.01789 -23.624
lShin  -25.993 -1.49214 -12.3037
lFoot  18.1611 -2.27308 1.42158
rThigh  -1.38791 -18.6505 -25.102
rShin  12.4083 33.3669 -2.02067
rFoot  10.5068 -1.29396 2.79855
1178
root  3.75778 35.1281 6.04311 176.752 13.0288 85.803
abdomen  -8.10933 -26.249 -1.15468
chest  -7.2173 -16.1529 -9.79765
neckDummy  9.09964e-021 0 8.72668e-016
neck  4.5896 -18.964 -6.98913
head  8.42991 14.4782 -8.70969
figureHair  0 1.51661e-021 -9.5315e-016
lCollar  -5.15695e-016 -6.42944e-016 -7.59357e-014
lShldr  43.023 5.57049 -85.0665
lForeArm  24.0938 -28.6001 -0.252301
lHand  0.254698 0.195082 5.2986
rCollar  1.7976e-016 -5.12864e-014 1.62755e-015
rShldr  12.4173 42.3846 12.3099
rForeArm  5.89987 1.19212 17.7732
rHand  0.302098 -15.0761 2.3136
lThigh  4.84475 2.79032 -23.6606
lShin  -26.3858 -1.52163 -12.2637
lFoot  18.1865 -2.28578 1.47966
rThigh  -1.55635 -18.861 -25.0399
rShin  12.2594 33.0976 -2.01406
rFoot  10.614 -1.3084 2.69253
